<?xml version="1.0" encoding="UTF-8" standalone="no"?>
<!-- Creator: CorelDRAW -->

<svg
   xmlns:dc="http://purl.org/dc/elements/1.1/"
   xmlns:cc="http://creativecommons.org/ns#"
   xmlns:rdf="http://www.w3.org/1999/02/22-rdf-syntax-ns#"
   xmlns:svg="http://www.w3.org/2000/svg"
   xmlns="http://www.w3.org/2000/svg"
   xmlns:sodipodi="http://sodipodi.sourceforge.net/DTD/sodipodi-0.dtd"
   xmlns:inkscape="http://www.inkscape.org/namespaces/inkscape"
   xml:space="preserve"
   width="380"
   height="100"
   style="clip-rule:evenodd;fill-rule:evenodd;image-rendering:optimizeQuality;shape-rendering:geometricPrecision;text-rendering:geometricPrecision"
   viewBox="0 0 3.9583333 1.0416667"
   version="1.1"
   id="svg114"
   sodipodi:docname="Inna-Lillahi.svg"
   inkscape:version="0.92.4 (5da689c313, 2019-01-14)"><metadata
   id="metadata118"><rdf:RDF><cc:Work
       rdf:about=""><dc:format>image/svg+xml</dc:format><dc:type
         rdf:resource="http://purl.org/dc/dcmitype/StillImage" /><dc:title></dc:title></cc:Work></rdf:RDF></metadata><sodipodi:namedview
   pagecolor="#ffffff"
   bordercolor="#666666"
   borderopacity="1"
   objecttolerance="10"
   gridtolerance="10"
   guidetolerance="10"
   inkscape:pageopacity="0"
   inkscape:pageshadow="2"
   inkscape:window-width="1366"
   inkscape:window-height="705"
   id="namedview116"
   showgrid="false"
   units="px"
   inkscape:zoom="1.2642212"
   inkscape:cx="100.0556"
   inkscape:cy="143.30055"
   inkscape:window-x="1272"
   inkscape:window-y="-8"
   inkscape:window-maximized="1"
   inkscape:current-layer="svg114" />
 <defs
   id="defs4">
  <style
   type="text/css"
   id="style2">
   <![CDATA[
    .fil0 {fill:black}
   ]]>
  </style>
 
  
  
  
  
  
  
  
  
  
  
  
  
  
  
  
  
  
  
  
  
  
  
  
  
  
  
  
  
  
  
  
  
  
  
  
  
  
  
  
  
  
  
  
  
  
  
  
  
  
  
  
  
  
  
 </defs>
 <g
   id="g1031"
   transform="matrix(0.54152794,0,0,0.54095054,-0.21741405,-2.2067786)"><path
     class="fil0"
     d="m 2.254903,4.2479992 c -0.03863,0.015217 -0.072571,0.066717 -0.081933,0.124071 -0.00819,0.060866 0.00819,0.086618 0.081933,0.124071 l 0.04448,0.023413 -0.032776,0.035114 c -0.049161,0.0515 -0.2200509,0.17674 -0.402654,0.294965 -0.086618,0.056181 -0.168551,0.114709 -0.180256,0.131094 l -0.02224,0.030433 0.037457,-0.019898 c 0.248146,-0.127587 0.6215351,-0.392118 0.6215351,-0.440106 0,-0.021071 0.033945,-0.00936 0.056181,0.018724 0.019898,0.024583 0.024579,0.025752 0.030433,0.010535 0.014043,-0.037457 0.00585,-0.077252 -0.021071,-0.101835 -0.021067,-0.021067 -0.028091,-0.042138 -0.032776,-0.105343 -0.00819,-0.100665 -0.043307,-0.145142 -0.098319,-0.125244 l 3.9e-6,3.9e-6 z m 0.025752,0.079595 c 0.018724,0.012878 0.039795,0.056181 0.039795,0.084276 0,0.023409 -0.00117,0.023409 -0.058528,-0.00585 -0.031602,-0.016386 -0.058524,-0.036283 -0.058524,-0.04448 0,-0.033945 0.046819,-0.055012 0.077252,-0.033945 z"
     id="path7"
     inkscape:connector-curvature="0"
     style="fill:#000000" /><path
     class="fil0"
     d="m 1.934183,4.2561892 c -0.00936,0.00351 -0.071398,0.02926 -0.138118,0.058524 -0.13578,0.058528 -0.244638,0.085449 -0.348811,0.085449 -0.085445,0 -0.184937,-0.026921 -0.235268,-0.065551 -0.019898,-0.015217 -0.039795,-0.028091 -0.043311,-0.028091 -0.00351,0 -0.015213,0.016386 -0.024579,0.03511 -0.017559,0.035114 -0.017559,0.037457 0.02224,0.085449 0.053846,0.065551 0.087787,0.142799 0.09013,0.201327 l 0.00117,0.046819 0.017559,-0.039795 C 1.28573,4.6108512 1.290411,4.5698792 1.288073,4.5335952 l -0.00351,-0.059697 0.099492,0.00468 c 0.1264131,0.00702 0.216543,-0.012874 0.397969,-0.090126 0.196646,-0.083106 0.2235671,-0.077252 0.1111971,0.025748 -0.049161,0.04448 -0.067886,0.071402 -0.081933,0.118224 -0.023409,0.079595 -0.021067,0.093638 0.00585,0.038626 0.012878,-0.024579 0.053843,-0.077252 0.091299,-0.117051 0.079595,-0.084276 0.1193901,-0.160358 0.09598,-0.188449 -0.015216,-0.017559 -0.038626,-0.021067 -0.070228,-0.00936 h -7.9e-6 z"
     id="path9"
     inkscape:connector-curvature="0"
     style="fill:#000000" /><path
     class="fil0"
     d="M 2.920923,4.2737492 C 2.889317,4.3088632 2.881124,4.3369542 2.865907,4.4703912 L 2.853029,4.5815922 2.815572,4.5148712 c -0.050331,-0.087783 -0.103,-0.146311 -0.1568461,-0.174402 -0.024579,-0.011709 -0.046819,-0.02224 -0.050331,-0.02224 -0.010531,0 -0.021067,0.104173 -0.014043,0.131094 0.00351,0.015217 0.025752,0.039795 0.050331,0.055016 0.039795,0.025748 0.043307,0.025748 0.057354,0.00702 0.012878,-0.017559 0.018724,-0.014047 0.056181,0.037457 0.02224,0.030429 0.050331,0.080764 0.062035,0.111197 0.019898,0.056181 0.035114,0.070228 0.04448,0.040965 0.00234,-0.00702 0.00702,-0.065547 0.010535,-0.128756 0.011705,-0.177913 0.0515,-0.245803 0.117051,-0.194299 l 0.030433,0.023409 v -0.052673 c 0,-0.038626 -0.00702,-0.060862 -0.023413,-0.077252 -0.030433,-0.030429 -0.049161,-0.02926 -0.078421,0.00234 z"
     id="path11"
     inkscape:connector-curvature="0"
     style="fill:#000000" /><path
     class="fil0"
     d="m 5.6703431,4.7355692 c -0.017228,0.019138 -0.021693,0.034453 -0.029988,0.107185 l -0.00702,0.06061 -0.020413,-0.036366 c -0.027433,-0.04785 -0.056146,-0.079752 -0.085492,-0.095063 -0.013398,-0.00638 -0.02552,-0.012122 -0.027433,-0.012122 -0.00574,0 -0.011484,0.056779 -0.00766,0.071457 0.00191,0.00829 0.014035,0.021689 0.027433,0.029984 0.021693,0.014039 0.023606,0.014039 0.031264,0.00383 0.00702,-0.00957 0.010205,-0.00766 0.030622,0.020417 0.012122,0.016587 0.027433,0.04402 0.033815,0.06061 0.010847,0.030622 0.019138,0.038279 0.024244,0.022327 0.00128,-0.00383 0.00383,-0.035728 0.00574,-0.070181 0.00638,-0.096972 0.028075,-0.133976 0.063803,-0.105906 l 0.016587,0.01276 v -0.028709 c 0,-0.021055 -0.00383,-0.033177 -0.01276,-0.04211 -0.016587,-0.016587 -0.026799,-0.015949 -0.042748,0.00128 z"
     id="path13"
     inkscape:connector-curvature="0"
     style="fill:#000000" /><path
     class="fil0"
     d="m 6.3627731,4.2894692 c -0.017228,0.019138 -0.021693,0.034453 -0.029988,0.107185 l -0.00702,0.06061 -0.020413,-0.036366 c -0.027433,-0.04785 -0.056146,-0.079752 -0.085492,-0.095063 -0.013398,-0.00638 -0.02552,-0.012122 -0.027433,-0.012122 -0.00574,0 -0.011484,0.05678 -0.00766,0.071457 0.00191,0.00829 0.014035,0.021689 0.027433,0.029984 0.021693,0.014039 0.023606,0.014039 0.031264,0.00383 0.00702,-0.00957 0.010205,-0.00766 0.030622,0.020417 0.012122,0.016587 0.027433,0.04402 0.033815,0.06061 0.010846,0.030622 0.019138,0.038279 0.024244,0.022327 0.00128,-0.00383 0.00383,-0.035728 0.00574,-0.070181 0.00638,-0.096972 0.028075,-0.133976 0.063803,-0.105906 l 0.016587,0.01276 v -0.028709 c 0,-0.021055 -0.00383,-0.033177 -0.01276,-0.04211 -0.016587,-0.016587 -0.026799,-0.015949 -0.042748,0.00128 z"
     id="path15"
     inkscape:connector-curvature="0"
     style="fill:#000000" /><path
     class="fil0"
     d="M 5.742803,4.2873792 C 5.725575,4.3065172 5.72111,4.3218322 5.712815,4.3945642 l -0.00702,0.06061 -0.020413,-0.036366 C 5.657949,4.3709582 5.629236,4.3390562 5.59989,4.3237452 5.586492,4.3173652 5.57437,4.3116232 5.572457,4.3116232 c -0.00574,0 -0.011484,0.05678 -0.00766,0.071457 0.00191,0.00829 0.014035,0.021689 0.027433,0.029984 0.021693,0.014039 0.023606,0.014039 0.031264,0.00383 0.00702,-0.00957 0.010205,-0.00766 0.030622,0.020417 0.012122,0.016587 0.027433,0.04402 0.033815,0.06061 0.010846,0.030622 0.019138,0.03828 0.024244,0.022327 0.00128,-0.00383 0.00383,-0.035728 0.00574,-0.070181 0.00638,-0.096972 0.028075,-0.133976 0.063803,-0.105906 l 0.016587,0.01276 v -0.028709 c 0,-0.021055 -0.00383,-0.033177 -0.01276,-0.04211 -0.016587,-0.016587 -0.026799,-0.015949 -0.042748,0.00128 z"
     id="path17"
     inkscape:connector-curvature="0"
     style="fill:#000000" /><path
     class="fil0"
     d="m 0.88648305,4.1878892 c -0.021126,0.023476 -0.0266024,0.042256 -0.0367795,0.131465 l -0.008606,0.074339 -0.0250433,-0.044602 c -0.0336457,-0.058689 -0.0688583,-0.097815 -0.104854,-0.116594 -0.0164331,-0.00783 -0.0313031,-0.01487 -0.0336496,-0.01487 -0.007043,0 -0.0140827,0.069646 -0.00939,0.087642 0.002346,0.010173 0.0172165,0.026606 0.0336496,0.036779 0.0266024,0.017216 0.0289528,0.017216 0.0383425,0.0047 0.008606,-0.01174 0.0125197,-0.00939 0.0375591,0.025039 0.0148701,0.020347 0.0336496,0.053996 0.0414724,0.074339 0.0133031,0.037563 0.0234764,0.046953 0.0297362,0.02739 0.001567,-0.0047 0.004697,-0.043823 0.007043,-0.086079 0.007827,-0.118941 0.0344291,-0.164327 0.078252,-0.129898 l 0.0203465,0.015653 v -0.035216 c 0,-0.025823 -0.004697,-0.040689 -0.0156535,-0.051646 -0.0203425,-0.020343 -0.0328661,-0.019559 -0.0524252,0.00157 z"
     id="path19"
     inkscape:connector-curvature="0"
     style="fill:#000000" /><path
     class="fil0"
     d="m 4.181543,4.2913092 c -0.024579,0.040965 -0.024579,0.049161 -0.012878,0.126413 0.015217,0.093638 0.085449,0.639091 0.11237,0.866169 0.00936,0.083102 0.018724,0.194299 0.021067,0.245803 0.00234,0.092468 0.00234,0.092468 -0.031602,0.110024 -0.047992,0.02224 -0.1275871,0.030433 -0.1568461,0.014047 -0.025748,-0.014047 -0.056181,-0.097154 -0.043307,-0.118224 0.019898,-0.032772 -0.01639,-0.028091 -0.115882,0.011709 -0.245803,0.100661 -0.42372,0.140457 -0.621531,0.140457 -0.203665,0 -0.3218901,-0.053843 -0.4096731,-0.184937 -0.056185,-0.085449 -0.085449,-0.101835 -0.1381219,-0.079594 -0.058524,0.024579 -0.120559,0.103 -0.18611,0.236441 -0.065547,0.135776 -0.107685,0.180256 -0.166209,0.180256 -0.077252,0 -0.1229021,-0.09013 -0.134606,-0.263362 -0.00702,-0.100661 -0.00936,-0.111197 -0.017555,-0.072571 -0.00585,0.025752 -0.00703,0.097154 -0.00468,0.159189 0.00468,0.091299 0.011709,0.126413 0.036287,0.177913 0.046819,0.098323 0.079594,0.127587 0.1451381,0.127587 0.052673,0 0.092469,-0.049161 0.162701,-0.196646 0.072571,-0.153335 0.129925,-0.224732 0.182594,-0.224732 0.026925,0 0.043311,0.014043 0.091303,0.079594 0.09715,0.135776 0.187276,0.177913 0.392118,0.18611 0.100661,0.00468 0.154504,0 0.246972,-0.018728 0.132268,-0.026921 0.326571,-0.091299 0.427232,-0.14163 l 0.066716,-0.032776 0.00585,0.059697 c 0.010535,0.11237 0.098319,0.145142 0.2200511,0.080768 0.055016,-0.028095 0.066717,-0.040968 0.088957,-0.095984 0.04565,-0.112366 0.031606,-0.357 -0.055012,-0.979705 -0.028094,-0.203665 -0.028094,-0.204839 0.00117,-0.165039 0.026921,0.036284 0.04565,0.042138 0.04565,0.014043 0,-0.023413 -0.108854,-0.285602 -0.11939,-0.285602 -0.00351,0 -0.018728,0.019898 -0.032776,0.043311 z"
     id="path21"
     inkscape:connector-curvature="0"
     style="fill:#000000" /><path
     class="fil0"
     d="m 4.7094331,4.2749192 c -0.024579,0.064378 -0.025748,0.086618 -0.00819,0.196646 0.029264,0.179087 0.063209,0.468197 0.1076889,0.905965 0.00936,0.09598 0.019898,0.188449 0.024579,0.204835 0.012878,0.057354 0.053843,0.115882 0.094811,0.13578 0.050331,0.023409 0.132268,0.016386 0.1767441,-0.015217 0.079594,-0.058524 0.1029999,-0.214201 0.049161,-0.328913 -0.016386,-0.033945 -0.033945,-0.059693 -0.039795,-0.05735 -0.00702,0.00234 -0.018728,0.025748 -0.026921,0.053843 -0.014047,0.046819 -0.012878,0.053843 0.012878,0.093638 0.015213,0.023413 0.031602,0.056185 0.03511,0.07374 0.00703,0.026925 0.00234,0.033949 -0.028091,0.049165 -0.04448,0.023409 -0.128756,0.023409 -0.1627009,0.00117 C 4.90725,5.5613002 4.888526,5.4781932 4.8604311,5.2195162 4.807762,4.7302482 4.748065,4.2901382 4.7316751,4.2597052 c -0.00819,-0.014043 -0.012878,-0.010535 -0.02224,0.015217 z"
     id="path23"
     inkscape:connector-curvature="0"
     style="fill:#000000" /><path
     class="fil0"
     d="m 5.1704831,4.3402292 c -0.019898,0.039795 -0.023413,0.057354 -0.014047,0.069059 0.00703,0.00819 0.019902,0.088961 0.029264,0.177917 0.00936,0.088957 0.032776,0.279748 0.0515,0.42489 0.040969,0.3055 0.058524,0.476394 0.062035,0.587587 0.00117,0.04448 0.00585,0.079595 0.010535,0.079595 0.00468,0 0.016386,-0.024579 0.026921,-0.055016 0.033945,-0.098319 0.023413,-0.262189 -0.0515,-0.846268 -0.012878,-0.099492 -0.025752,-0.202496 -0.030433,-0.228248 l -0.00702,-0.046819 0.036284,0.033945 0.036287,0.035114 -0.00117,-0.02926 c 0,-0.033945 -0.093638,-0.246976 -0.110028,-0.252827 -0.00702,-0.00234 -0.024579,0.019898 -0.038626,0.050327 z"
     id="path25"
     inkscape:connector-curvature="0"
     style="fill:#000000" /><path
     class="fil0"
     d="m 4.4204831,4.3402292 c -0.019898,0.039795 -0.023413,0.057354 -0.014047,0.069059 0.00703,0.00819 0.019902,0.088961 0.029264,0.177917 0.00936,0.088957 0.032776,0.279748 0.0515,0.42489 0.040969,0.3055 0.058524,0.476394 0.062035,0.587587 0.00117,0.04448 0.00585,0.079595 0.010535,0.079595 0.00468,0 0.016386,-0.024579 0.026921,-0.055016 0.033945,-0.098319 0.023413,-0.262189 -0.0515,-0.846268 -0.012878,-0.099492 -0.025752,-0.202496 -0.030433,-0.228248 l -0.00702,-0.046819 0.036284,0.033945 0.036287,0.035114 -0.00117,-0.02926 c 0,-0.033945 -0.093638,-0.246976 -0.110028,-0.252827 -0.00702,-0.00234 -0.024579,0.019898 -0.038626,0.050327 z"
     id="path27"
     inkscape:connector-curvature="0"
     style="fill:#000000" /><path
     class="fil0"
     d="m 7.5263831,4.3402292 c -0.019898,0.039795 -0.023413,0.057354 -0.014047,0.069059 0.00703,0.00819 0.019902,0.088961 0.029264,0.177917 0.00936,0.088957 0.032776,0.279748 0.0515,0.42489 0.040968,0.3055 0.058524,0.476394 0.062035,0.587587 0.00117,0.04448 0.00585,0.079595 0.010535,0.079595 0.00468,0 0.016386,-0.024579 0.026921,-0.055016 0.033945,-0.098319 0.023413,-0.262189 -0.0515,-0.846268 -0.012878,-0.099492 -0.025752,-0.202496 -0.030433,-0.228248 l -0.00702,-0.046819 0.036283,0.033945 0.036287,0.035114 -0.00117,-0.02926 c 0,-0.033945 -0.093638,-0.246976 -0.110028,-0.252827 -0.00702,-0.00234 -0.024579,0.019898 -0.038626,0.050327 z"
     id="path29"
     inkscape:connector-curvature="0"
     style="fill:#000000" /><path
     class="fil0"
     d="m 6.1871131,4.6014092 c -0.094811,0.038626 -0.1287601,0.057354 -0.153339,0.090126 -0.016386,0.02224 -0.028091,0.042138 -0.026921,0.04448 0.00468,0.00351 0.145142,-0.053843 0.7807241,-0.314862 0.1463109,-0.060862 0.1837679,-0.080764 0.2071769,-0.112366 0.01639,-0.02224 0.026921,-0.040968 0.025752,-0.043311 -0.00351,-0.00351 -0.1697241,0.063209 -0.5431101,0.216543 -0.3933393,0.1643823 -0.013016,0.00741 -0.2902829,0.11939 z"
     id="path31"
     inkscape:connector-curvature="0"
     style="fill:#000000" /><path
     class="fil0"
     d="m 3.198773,4.5154192 c -0.094811,0.038626 -0.1287599,0.057354 -0.1533389,0.090126 -0.016386,0.02224 -0.028091,0.042138 -0.026921,0.04448 0.00468,0.00351 0.145142,-0.053843 0.780724,-0.314862 0.1463109,-0.060862 0.183768,-0.080764 0.2071769,-0.112366 0.01639,-0.02224 0.026921,-0.040969 0.025752,-0.043311 -0.00351,-0.00351 -0.169724,0.063209 -0.54311,0.216543 -0.3933393,0.1643823 -0.013016,0.00741 -0.290283,0.11939 z"
     id="path33"
     inkscape:connector-curvature="0"
     style="fill:#000000" /><path
     class="fil0"
     d="m 5.497373,4.6514492 c -0.058126,0.023681 -0.078937,0.035165 -0.094008,0.055256 -0.010047,0.013638 -0.017221,0.025835 -0.016504,0.027272 0.00287,0.00215 0.088984,-0.033012 0.47865,-0.193035 0.089701,-0.037315 0.1126611,-0.04952 0.1270161,-0.068894 0.010047,-0.013634 0.016504,-0.025114 0.015787,-0.026551 -0.00215,-0.00215 -0.104055,0.038752 -0.332972,0.13276 -0.2411459,0.10078 -0.00798,0.00454 -0.1779691,0.073192 z"
     id="path35"
     inkscape:connector-curvature="0"
     style="fill:#000000" /><path
     class="fil0"
     d="m 7.2276031,4.3073192 c -0.026252,0.010776 -0.03563,0.017752 -0.042339,0.035031 -0.00447,0.011768 -0.00765,0.022724 -0.00731,0.024386 0.00132,0.00292 0.040213,-0.01313 0.216197,-0.086689 0.040508,-0.017429 0.050858,-0.024638 0.057248,-0.041342 0.00447,-0.011768 0.00733,-0.022154 0.00699,-0.023815 -9.922e-4,-0.00274 -0.04702,0.015512 -0.1504059,0.058721 -0.108898,0.047339 -0.00359,0.00282 -0.080378,0.033709 z"
     id="path37"
     inkscape:connector-curvature="0"
     style="fill:#000000" /><path
     class="fil0"
     d="m 4.865853,4.3619592 c -0.026252,0.010776 -0.03563,0.017752 -0.042339,0.035031 -0.00447,0.011768 -0.00765,0.022724 -0.00731,0.024386 0.00132,0.00292 0.040213,-0.01313 0.216197,-0.086689 0.040508,-0.017429 0.050858,-0.024638 0.057248,-0.041342 0.00447,-0.011768 0.00733,-0.022154 0.00699,-0.023815 -9.921e-4,-0.00274 -0.04702,0.015512 -0.150406,0.058721 -0.108898,0.047339 -0.00359,0.00282 -0.080378,0.033709 z"
     id="path39"
     inkscape:connector-curvature="0"
     style="fill:#000000" /><path
     class="fil0"
     d="m 7.0656531,4.3018392 c -0.019898,0.051504 -0.018724,0.057354 0.00585,0.195476 0.039795,0.222394 0.069059,0.458835 0.1006609,0.831051 0.033945,0.37924 0.04448,0.420209 0.1158781,0.458835 0.053847,0.02926 0.145142,0.019898 0.197815,-0.021071 0.07374,-0.056181 0.092468,-0.202496 0.039795,-0.317205 -0.016386,-0.036283 -0.035114,-0.065547 -0.040968,-0.065547 -0.00468,0 -0.016386,0.024579 -0.023409,0.056181 -0.014047,0.052673 -0.012878,0.058528 0.019898,0.11939 0.019898,0.035114 0.036284,0.06789 0.036284,0.072571 0,0.019898 -0.072567,0.04448 -0.128756,0.04448 -0.049161,0 -0.064378,-0.00585 -0.087784,-0.030433 C 7.26463,5.6069412 7.26463,5.6046022 7.236539,5.2663272 7.2107871,4.9538032 7.1674761,4.5979732 7.131193,4.3919652 7.118315,4.3193942 7.10778,4.2573592 7.10778,4.2538472 c 0,-0.00351 -0.00468,-0.00585 -0.010531,-0.00585 -0.00585,0 -0.019898,0.024579 -0.031606,0.053843 z"
     id="path41"
     inkscape:connector-curvature="0"
     style="fill:#000000" /><path
     class="fil0"
     d="m 0.77540005,4.6483092 c 0,0.00234 0.0187244,0.00234 0.0409646,0 0.0245787,-0.00351 0.0409685,0 0.0409685,0.00819 0,0.00702 -0.008193,0.012878 -0.0175591,0.012878 -0.009362,0 -0.0327756,0.014043 -0.0526732,0.031602 -0.0573543,0.051504 -0.0561811,0.087787 0.004681,0.330079 0.0292598,0.118224 0.0596969,0.265705 0.0667165,0.32774 0.007024,0.062035 0.0163898,0.114709 0.0198976,0.118224 0.002343,0.00351 0.002343,-0.046819 -0.001169,-0.111197 -0.007024,-0.120563 -0.0327756,-0.255173 -0.0842756,-0.450642 -0.0152165,-0.060866 -0.0292598,-0.11822 -0.0292598,-0.126413 0,-0.017559 0.0795906,-0.055016 0.142799,-0.066717 0.0362835,-0.00702 0.0444803,-0.014047 0.0515,-0.04448 0.007024,-0.031606 0.002343,-0.040968 -0.0316024,-0.069059 -0.0571852,-0.047658 -0.15098819,-0.056847 -0.1509881,0.039795 z"
     id="path43"
     inkscape:connector-curvature="0"
     style="fill:#000000" /><path
     class="fil0"
     d="m 7.300913,4.4738992 c -0.00702,0.035114 -0.00234,0.058524 0.02224,0.113535 0.017559,0.03863 0.035114,0.097154 0.039795,0.131098 l 0.00703,0.062035 0.00819,-0.052673 C 7.388703,4.6576622 7.372318,4.5651932 7.338373,4.4902842 L 7.310282,4.4294182 Z"
     id="path45"
     inkscape:connector-curvature="0"
     style="fill:#000000" /><path
     class="fil0"
     d="m 4.904913,4.4891192 c -0.00351,0.028094 0.00469,0.059697 0.023413,0.099492 0.016386,0.032776 0.032776,0.091299 0.037457,0.131094 0.00702,0.072571 0.00702,0.072571 0.016386,0.028094 0.00585,-0.025752 0.00702,-0.072571 0.00351,-0.105346 -0.00702,-0.065547 -0.050331,-0.195472 -0.066717,-0.195472 -0.00468,0 -0.011709,0.018724 -0.014047,0.042138 z"
     id="path47"
     inkscape:connector-curvature="0"
     style="fill:#000000" /><path
     class="fil0"
     d="m 2.5124131,4.5698792 c -0.036284,0.055016 -0.074913,0.16387 -0.074913,0.213031 0,0.087787 0.071402,0.107689 0.117051,0.032776 0.02926,-0.047988 0.030433,-0.059697 0,-0.02926 -0.028091,0.028095 -0.050331,0.02926 -0.070228,0.00585 -0.024583,-0.029264 -0.015216,-0.095984 0.02224,-0.176744 0.036284,-0.078425 0.038626,-0.095984 0.00585,-0.04565 z"
     id="path49"
     inkscape:connector-curvature="0"
     style="fill:#000000" /><path
     class="fil0"
     d="m 2.0869531,5.3577992 c -0.036283,0.055016 -0.074913,0.16387 -0.074913,0.213031 0,0.087787 0.071402,0.107689 0.117051,0.032776 0.02926,-0.047988 0.030433,-0.059697 0,-0.02926 -0.028091,0.028094 -0.050331,0.02926 -0.070228,0.00585 -0.024583,-0.029264 -0.015217,-0.095984 0.02224,-0.176744 0.036283,-0.078425 0.038626,-0.095984 0.00585,-0.04565 z"
     id="path51"
     inkscape:connector-curvature="0"
     style="fill:#000000" /><path
     class="fil0"
     d="m 7.4763931,4.7874292 c -0.036283,0.055016 -0.074913,0.16387 -0.074913,0.213031 0,0.087787 0.071402,0.107689 0.117051,0.032776 0.02926,-0.047988 0.030433,-0.059697 0,-0.02926 -0.028091,0.028094 -0.050331,0.02926 -0.070228,0.00585 -0.024583,-0.029264 -0.015217,-0.095984 0.02224,-0.176744 0.036284,-0.078425 0.038626,-0.095984 0.00585,-0.04565 z"
     id="path53"
     inkscape:connector-curvature="0"
     style="fill:#000000" /><path
     class="fil0"
     d="m 6.9763931,4.5374292 c -0.036283,0.055016 -0.074913,0.16387 -0.074913,0.213031 0,0.087787 0.071402,0.107689 0.117051,0.032776 0.02926,-0.047988 0.030433,-0.059697 0,-0.02926 -0.028091,0.028094 -0.050331,0.02926 -0.070228,0.00585 -0.024583,-0.029264 -0.015217,-0.095984 0.02224,-0.176744 0.036284,-0.078425 0.038626,-0.095984 0.00585,-0.04565 z"
     id="path55"
     inkscape:connector-curvature="0"
     style="fill:#000000" /><path
     class="fil0"
     d="m 5.0487931,4.6974292 c -0.036283,0.055016 -0.074913,0.16387 -0.074913,0.213031 0,0.087787 0.071402,0.107689 0.117051,0.032776 0.02926,-0.047988 0.030433,-0.059697 0,-0.02926 -0.028091,0.028094 -0.050331,0.02926 -0.070228,0.00585 -0.024583,-0.029264 -0.015217,-0.095984 0.02224,-0.176744 0.036284,-0.078425 0.038626,-0.095984 0.00585,-0.04565 z"
     id="path57"
     inkscape:connector-curvature="0"
     style="fill:#000000" /><path
     class="fil0"
     d="m 3.9763931,4.5374292 c -0.036284,0.055016 -0.074913,0.16387 -0.074913,0.213031 0,0.087787 0.071402,0.107689 0.1170509,0.032776 0.02926,-0.047988 0.030433,-0.059697 0,-0.02926 -0.028091,0.028094 -0.050331,0.02926 -0.070228,0.00585 -0.024583,-0.029264 -0.015217,-0.095984 0.02224,-0.176744 0.036284,-0.078425 0.038626,-0.095984 0.00585,-0.04565 z"
     id="path59"
     inkscape:connector-curvature="0"
     style="fill:#000000" /><path
     class="fil0"
     d="m 3.2591931,4.6901892 c -0.036284,0.055016 -0.074913,0.16387 -0.074913,0.213031 0,0.087787 0.071402,0.107689 0.117051,0.032776 0.02926,-0.047988 0.030433,-0.059697 0,-0.02926 -0.028091,0.028094 -0.050331,0.02926 -0.070228,0.00585 -0.024583,-0.029264 -0.015217,-0.095984 0.02224,-0.176744 0.036283,-0.078425 0.038626,-0.095984 0.00585,-0.04565 z"
     id="path61"
     inkscape:connector-curvature="0"
     style="fill:#000000" /><path
     class="fil0"
     d="m 1.527963,4.6765992 c -0.036283,0.055016 -0.074913,0.16387 -0.074913,0.213031 0,0.087787 0.071402,0.107689 0.117051,0.032776 0.02926,-0.047988 0.030433,-0.059697 0,-0.02926 -0.028091,0.028094 -0.050331,0.02926 -0.070228,0.00585 -0.024583,-0.029264 -0.015216,-0.095984 0.02224,-0.176744 0.036284,-0.078425 0.038626,-0.095984 0.00585,-0.04565 z"
     id="path63"
     inkscape:connector-curvature="0"
     style="fill:#000000" /><path
     class="fil0"
     d="m 1.086955,4.6874292 c -0.036283,0.055016 -0.074913,0.16387 -0.074913,0.213031 0,0.087787 0.071402,0.107689 0.117051,0.032776 0.02926,-0.047988 0.030433,-0.059697 0,-0.02926 -0.028091,0.028094 -0.050331,0.02926 -0.070228,0.00585 -0.024583,-0.029264 -0.015216,-0.095984 0.02224,-0.176744 0.036284,-0.078425 0.038626,-0.095984 0.00585,-0.04565 z"
     id="path65"
     inkscape:connector-curvature="0"
     style="fill:#000000" /><path
     class="fil0"
     d="m 0.67957405,5.1070492 c -0.0362835,0.055016 -0.0749134,0.16387 -0.0749134,0.213031 0,0.087787 0.0714016,0.107689 0.117051,0.032776 0.0292598,-0.047988 0.0304331,-0.059697 0,-0.02926 -0.0280906,0.028094 -0.0503307,0.02926 -0.0702283,0.00585 -0.0245827,-0.029264 -0.0152165,-0.095984 0.0222402,-0.176744 0.0362835,-0.078425 0.038626,-0.095984 0.00585,-0.04565 z"
     id="path67"
     inkscape:connector-curvature="0"
     style="fill:#000000" /><path
     class="fil0"
     d="m 0.47639605,4.7020992 c -0.0362835,0.055016 -0.0749134,0.16387 -0.0749134,0.213031 0,0.087787 0.0714016,0.107689 0.117051,0.032776 0.0292598,-0.047988 0.0304331,-0.059697 0,-0.02926 -0.0280906,0.028094 -0.0503307,0.02926 -0.0702283,0.00585 -0.0245827,-0.029264 -0.0152165,-0.095984 0.0222402,-0.176744 0.0362835,-0.078425 0.038626,-0.095984 0.00585,-0.04565 z"
     id="path69"
     inkscape:connector-curvature="0"
     style="fill:#000000" /><path
     class="fil0"
     d="m 3.351423,4.3723092 c 0.029532,-0.058917 0.055035,-0.171571 0.049228,-0.22039 -0.01037,-0.087173 -0.083618,-0.0985 -0.1201021,-0.01872 -0.02339,0.05111 -0.023169,0.06287 0.00346,0.029055 0.024579,-0.031213 0.04652,-0.035 0.069047,-0.014106 0.027862,0.026153 0.026445,0.093512 -0.00121,0.178134 -0.026768,0.082158 -0.02702,0.09987 -4.213e-4,0.04602 z"
     id="path71"
     inkscape:connector-curvature="0"
     style="fill:#000000" /><path
     class="fil0"
     d="m 6.581063,4.6190392 c 0,0.018728 0.01639,0.063209 0.035114,0.099492 0.037457,0.070232 0.032776,0.087787 -0.017559,0.074913 -0.02224,-0.00585 -0.032772,-0.024579 -0.058524,-0.100661 -0.017559,-0.051504 -0.036283,-0.093642 -0.042138,-0.093642 -0.016386,0 -0.012878,0.06789 0.00936,0.13578 0.02224,0.070228 0.010535,0.098319 -0.038626,0.098319 -0.032776,0 -0.046819,-0.023409 -0.057354,-0.099492 -0.00351,-0.032772 -0.011705,-0.066717 -0.017559,-0.076083 -0.018728,-0.030433 -0.026921,0.017559 -0.014043,0.078421 0.00702,0.031606 0.015213,0.074913 0.019898,0.098323 0.00819,0.052673 0.02926,0.071398 0.072567,0.066717 0.023413,-0.00234 0.03863,-0.014043 0.051504,-0.040965 0.018724,-0.037457 0.018724,-0.037457 0.039795,-0.015217 0.042138,0.046819 0.111197,0.011705 0.111197,-0.056185 0,-0.031602 -0.071398,-0.201327 -0.084276,-0.201327 -0.00585,0 -0.00936,0.014047 -0.00936,0.031606 z"
     id="path73"
     inkscape:connector-curvature="0"
     style="fill:#000000" /><path
     class="fil0"
     d="m 3.5026531,4.6635192 c -0.011705,0.058524 -0.010532,0.069059 0.00937,0.103 0.039795,0.064378 0.072567,0.159189 0.088957,0.258681 l 0.015217,0.094811 0.00936,-0.070232 c 0.012878,-0.094811 -0.00702,-0.225906 -0.052673,-0.344126 -0.019898,-0.0515 -0.040965,-0.097153 -0.046819,-0.100665 -0.00585,-0.00351 -0.016386,0.023413 -0.023413,0.058528 z"
     id="path75"
     inkscape:connector-curvature="0"
     style="fill:#000000" /><path
     class="fil0"
     d="m 5.8694031,4.7653592 c -0.00585,0.00819 -0.011705,0.049161 -0.012878,0.088957 -0.00117,0.065547 0.00117,0.074913 0.02224,0.080764 0.030433,0.00819 0.030433,0.010535 -0.017559,0.063209 -0.0515,0.057354 -0.057354,0.120559 -0.012874,0.14163 0.059697,0.026921 0.218882,-0.037457 0.291453,-0.118224 0.053843,-0.059697 0.056185,-0.084276 0.00585,-0.040965 -0.063209,0.052673 -0.1720629,0.098319 -0.234102,0.098319 -0.031602,0 -0.056181,-0.00351 -0.056181,-0.00702 0,-0.00468 0.02224,-0.031602 0.049161,-0.062035 0.036284,-0.038626 0.057354,-0.052673 0.077252,-0.049161 0.039795,0.00468 0.060862,-0.018728 0.060862,-0.06789 0,-0.049161 -0.024579,-0.083102 -0.081933,-0.117051 -0.046819,-0.028091 -0.07374,-0.030429 -0.091299,-0.010531 z m 0.065547,0.100661 c 0.00351,0.018728 -0.00117,0.02224 -0.021071,0.017559 -0.031602,-0.00819 -0.042138,-0.026921 -0.02224,-0.039795 0.023413,-0.014047 0.039795,-0.00702 0.043311,0.02224 z m 0.066721,0.00234 c 0.024579,0.028094 0.017559,0.040968 -0.01639,0.02926 -0.014043,-0.00351 -0.024579,-0.017555 -0.024579,-0.030429 0,-0.028094 0.014047,-0.028094 0.040968,0.00117 z"
     id="path77"
     inkscape:connector-curvature="0"
     style="fill:#000000" /><path
     class="fil0"
     d="m 2.5861531,4.9350792 c -0.026921,0.00702 -0.085445,0.11939 -0.064378,0.125244 0.00819,0.00234 0.062035,0.010535 0.11939,0.018724 0.083106,0.010535 0.1065159,0.010535 0.113539,-0.00117 0.00702,-0.011705 0.032772,-0.00819 0.114709,0.018724 0.058524,0.018728 0.103,0.037457 0.098319,0.042138 -0.017559,0.014047 -0.360516,0.136949 -0.422551,0.149827 -0.076083,0.016386 -0.150992,0.00117 -0.2212241,-0.043311 C 2.295866,5.2277002 2.27363,5.2101412 2.27363,5.2066292 c 0,-0.00468 0.033945,-0.02224 0.076083,-0.039795 0.069059,-0.02926 0.077252,-0.037457 0.09598,-0.085449 0.018728,-0.049161 0.018728,-0.052669 -0.00117,-0.067886 -0.063209,-0.04565 -0.338276,-0.06789 -0.4576651,-0.035114 -0.09013,0.023409 -0.1076889,0.036284 -0.127587,0.097154 -0.010532,0.02926 -0.018724,0.056181 -0.018724,0.058524 0,0.00117 0.014043,-0.00234 0.030433,-0.00819 0.016386,-0.00702 0.040965,-0.011705 0.055012,-0.011705 0.031606,0 0.149827,0.071398 0.1451421,0.087787 -0.00234,0.00585 -0.049161,0.031602 -0.1030041,0.055012 C 1.878004,5.2979352 1.868642,5.2991092 1.858106,5.2803802 1.852256,5.2698452 1.821819,5.2359002 1.79139,5.2042972 1.743398,5.1574782 1.728181,5.1492812 1.690725,5.1492812 c -0.139291,0 -0.167378,0.273898 -0.031602,0.299646 0.039795,0.00702 0.09598,0.00234 0.155673,-0.014043 0.02224,-0.00702 0.025752,-0.00351 0.025752,0.028095 0,0.031602 -0.010535,0.042138 -0.080768,0.088957 -0.114705,0.077252 -0.369878,0.197811 -0.532575,0.252827 -0.076083,0.025748 -0.2024959,0.058524 -0.28092094,0.071398 -0.217713,0.037457 -0.216543,0.039795 0.0421378,0.043311 0.28092094,0.00351 0.29613794,0 0.52438194,-0.113539 0.2785791,-0.138118 0.3628541,-0.221224 0.3628541,-0.354661 0,-0.028091 0.010535,-0.037457 0.079595,-0.072571 0.04448,-0.02224 0.1076851,-0.056181 0.1416301,-0.076083 l 0.059697,-0.036284 0.067886,0.0515 c 0.182598,0.138118 0.220055,0.136949 0.595783,-0.014043 0.095984,-0.03863 0.207181,-0.078425 0.249319,-0.087787 0.087787,-0.021071 0.1872799,-0.036283 0.1872799,-0.02926 0,0.00351 -0.019898,0.04448 -0.04565,0.093638 -0.058528,0.11237 -0.070232,0.188449 -0.038626,0.257508 0.016386,0.037457 0.03511,0.057354 0.064378,0.071402 0.094807,0.045646 0.1545041,0.016386 0.3136891,-0.15802 0.256339,-0.277406 0.3359329,-0.338272 0.4541539,-0.346465 0.056185,-0.00351 0.072571,0 0.110028,0.025748 0.024579,0.01639 0.046819,0.030433 0.049161,0.030433 0.00351,0 0.00585,-0.028091 0.00585,-0.063205 0,-0.058528 -0.00351,-0.06672 -0.037457,-0.091303 -0.031602,-0.021067 -0.053843,-0.026921 -0.114709,-0.026921 -0.120559,0.00117 -0.1697239,0.033949 -0.409673,0.27624 -0.206008,0.20952 -0.269217,0.256339 -0.338276,0.256339 -0.04448,0 -0.071398,-0.036287 -0.071398,-0.09598 0,-0.050331 0.036284,-0.154508 0.070232,-0.196646 0.019898,-0.026921 0.028091,-0.029264 0.098319,-0.025752 l 0.076083,0.00468 0.031606,-0.047988 c 0.017559,-0.026925 0.02926,-0.050331 0.026921,-0.053847 -0.00351,-0.00234 -0.072571,-0.012874 -0.153335,-0.02224 C 3.170233,5.0521231 3.096493,5.0357373 2.8986781,4.9737023 2.754706,4.929222 2.6563831,4.916348 2.586154,4.9350724 v 7.9e-6 z m -0.330079,0.150992 c 0.015216,0.00585 0.011709,0.011709 -0.017559,0.029264 -0.045646,0.028091 -0.053843,0.028091 -0.09598,-0.00702 l -0.035114,-0.029264 h 0.064378 c 0.036287,0 0.073744,0.00351 0.084275,0.00702 z m -0.5325751,0.206008 0.040965,0.026925 -0.033945,0.00351 C 1.711795,5.3248542 1.677846,5.3236842 1.655606,5.3190042 1.61698,5.3119742 1.61698,5.3108142 1.636882,5.2885712 1.66263,5.2604772 1.673166,5.2604772 1.7235,5.2920812 Z"
     id="path79"
     inkscape:connector-curvature="0"
     style="fill:#000000" /><path
     class="fil0"
     d="m 6.832723,4.9409292 c -0.035114,0.09598 -0.036283,0.106516 -0.021071,0.154508 0.040968,0.127583 0.1334411,0.404992 0.152165,0.454154 0.019898,0.053843 0.019898,0.056181 -0.00234,0.072571 C 6.8970991,5.6713232 6.804631,5.6537642 6.7402531,5.5823632 6.6922651,5.5296942 6.6828991,5.4957452 6.6571511,5.3108122 6.639592,5.1843992 6.5916,4.9807332 6.575218,4.9643432 c -0.00937,-0.010531 -0.026921,0.017559 -0.043311,0.070232 -0.010535,0.036283 -0.00936,0.059697 0.00936,0.134606 0.015216,0.064378 0.02224,0.133437 0.02224,0.232929 0,0.136949 -0.00117,0.142799 -0.03511,0.197811 -0.086622,0.139291 -0.2621929,0.133441 -0.3136929,-0.011705 -0.02224,-0.064378 -0.019898,-0.150992 0.010535,-0.306669 0.030429,-0.15802 0.017555,-0.214201 -0.03863,-0.168551 -0.059697,0.046819 -0.1041731,0.162697 -0.149823,0.386264 -0.01639,0.080764 -0.03863,0.165039 -0.050331,0.18728 -0.026921,0.05735 -0.069059,0.062035 -0.117051,0.012874 -0.053843,-0.053843 -0.084276,-0.14748 -0.094811,-0.300819 -0.00936,-0.114705 -0.015217,-0.143969 -0.047992,-0.209516 -0.062035,-0.126413 -0.172059,-0.182598 -0.2305869,-0.11939 -0.060862,0.06789 -0.083102,0.195472 -0.043307,0.252827 0.016386,0.024579 0.026921,0.025752 0.122902,0.024579 0.085449,-0.00117 0.108854,0.00234 0.127587,0.018728 0.049161,0.04448 0.02926,0.071398 -0.128756,0.173232 -0.2153741,0.138118 -0.461177,0.254 -0.7549721,0.354661 -0.1603579,0.053843 -0.2060079,0.074913 -0.1662089,0.074913 0.052673,0 0.436594,-0.060866 0.4845869,-0.077252 0.1638701,-0.053843 0.5548151,-0.303157 0.5934411,-0.378071 0.016386,-0.02926 0.016386,-0.02926 0.024579,0.028094 0.028091,0.200154 0.105343,0.333591 0.194303,0.333591 0.067886,0 0.083102,-0.033945 0.1275829,-0.293791 0.032776,-0.188449 0.070232,-0.318378 0.09598,-0.333594 0.00937,-0.00585 0.010535,0.00117 0.00585,0.019898 -0.091299,0.33476 -0.02926,0.553646 0.160358,0.570031 0.1310981,0.010535 0.2153741,-0.078421 0.258681,-0.272724 0.00819,-0.033945 0.00819,-0.033945 0.02224,0.019898 0.031602,0.11939 0.1252441,0.201327 0.2317601,0.201327 0.067886,0 0.111197,-0.028091 0.143972,-0.093638 0.018724,-0.036287 0.023409,-0.06789 0.023409,-0.156846 -0.00117,-0.104173 -0.00468,-0.120559 -0.056181,-0.254 -0.030433,-0.078421 -0.055016,-0.146311 -0.055016,-0.149823 0,-0.00351 0.010535,-0.00117 0.02224,0.00585 0.052673,0.028094 0.049161,0.00585 -0.018724,-0.113535 -0.056185,-0.09598 -0.069063,-0.111197 -0.079594,-0.083106 l -7.9e-6,-7.9e-6 z m -1.2313599,0.251657 0.037457,0.019898 -0.035114,0.00819 c -0.09013,0.019898 -0.1416301,0.00585 -0.111197,-0.030433 0.018724,-0.023409 0.063205,-0.02224 0.1088544,0.00234 z"
     id="path81"
     inkscape:connector-curvature="0"
     style="fill:#000000" /><path
     class="fil0"
     d="m 1.303293,5.0041392 c -0.014043,0.056185 -0.012878,0.062039 0.033945,0.174406 0.080768,0.19313 0.080768,0.191965 0.042138,0.222398 -0.065547,0.052669 -0.224732,0.133437 -0.33476,0.170894 -0.0983188,0.033945 -0.12523995,0.038626 -0.23994895,0.038626 -0.105346,0 -0.138122,-0.00468 -0.181429,-0.024579 -0.064378,-0.02926 -0.143972,-0.11237 -0.165043,-0.174406 -0.0187244,-0.053843 -0.0198976,-0.218882 -0.001169,-0.265705 0.008193,-0.017559 0.009362,-0.031602 0.002343,-0.031602 -0.0105354,0 -0.0175591,0.021071 -0.0479921,0.143972 -0.0198976,0.080764 -0.008193,0.23761 0.0210709,0.294965 0.128756,0.246976 0.497461,0.254 0.85563395,0.017559 0.11939,-0.078421 0.135776,-0.09598 0.153335,-0.158016 0.021071,-0.076087 0.015216,-0.152165 -0.016386,-0.228248 -0.035114,-0.083106 -0.035114,-0.081933 -0.00585,-0.081933 0.012878,0 0.023413,-0.00351 0.023413,-0.00937 0,-0.00468 -0.028095,-0.039795 -0.063209,-0.078421 l -0.062035,-0.069059 -0.014043,0.058524 z"
     id="path83"
     inkscape:connector-curvature="0"
     style="fill:#000000" /><path
     class="fil0"
     d="m 6.3434531,5.2042892 c -0.00351,0.033945 0.00351,0.062035 0.02926,0.115878 0.02224,0.04565 0.037457,0.099492 0.040968,0.146311 0.00468,0.052673 0.00936,0.06789 0.016386,0.051504 0.012878,-0.033949 0.011705,-0.132268 -0.00234,-0.191965 -0.014043,-0.063209 -0.057354,-0.165039 -0.069059,-0.165039 -0.00468,0 -0.011705,0.019898 -0.015217,0.043307 z"
     id="path85"
     inkscape:connector-curvature="0"
     style="fill:#000000" /><path
     class="fil0"
     d="m 3.8561431,5.2628192 c -0.047992,0.108854 -0.056185,0.149827 -0.032776,0.184941 0.03863,0.057354 0.1158779,0.028091 0.1310939,-0.049161 0.00937,-0.04448 -0.00936,-0.079595 -0.053843,-0.103004 l -0.035114,-0.018724 0.023413,-0.04565 c 0.012874,-0.025752 0.018724,-0.046819 0.014043,-0.046819 -0.00585,0 -0.026921,0.035114 -0.046819,0.078421 z m 0.031602,0.091299 c 0.062035,0.031606 0.053843,0.071402 -0.012878,0.062039 -0.021067,-0.00234 -0.028091,-0.011709 -0.030429,-0.042142 -0.00468,-0.042138 -0.00234,-0.043307 0.043307,-0.019898 z"
     id="path87"
     inkscape:connector-curvature="0"
     style="fill:#000000" /><path
     class="fil0"
     d="m 1.901413,5.6932192 c -0.012874,0.014043 -0.032772,0.046819 -0.043307,0.071398 -0.017559,0.040968 -0.017559,0.04565 0.00117,0.066717 0.018728,0.021071 0.018728,0.025752 0.00117,0.064378 -0.026921,0.055016 -0.024579,0.083106 0.00468,0.099492 0.062035,0.032776 0.1989841,-0.019898 0.2668701,-0.103 0.050331,-0.062035 0.04565,-0.069063 -0.017555,-0.021071 -0.029264,0.02224 -0.081937,0.049161 -0.1170511,0.059697 -0.062035,0.017559 -0.121732,0.015216 -0.121732,-0.00585 0,-0.00585 0.024579,-0.031602 0.056181,-0.058524 0.1030041,-0.091299 0.1205631,-0.108854 0.1147091,-0.114709 -0.00234,-0.00351 -0.026921,0.00585 -0.0515,0.019898 -0.050331,0.028094 -0.107689,0.025752 -0.107689,-0.00585 0,-0.019898 0.036287,-0.032776 0.063209,-0.02224 0.015217,0.00585 0.018724,-0.00117 0.018724,-0.035114 0,-0.050331 -0.028091,-0.057354 -0.067886,-0.015216 z"
     id="path89"
     inkscape:connector-curvature="0"
     style="fill:#000000" /><path
     class="fil0"
     d="m 2.7558731,5.7412292 c -0.00585,0.00819 -0.015217,0.040968 -0.019898,0.071402 -0.00702,0.046819 -0.00468,0.058524 0.011705,0.071398 0.018728,0.014043 0.018728,0.016386 -0.012874,0.038626 -0.018728,0.012878 -0.056185,0.035114 -0.083106,0.049161 -0.057354,0.029264 -0.064378,0.039799 -0.017559,0.029264 0.04448,-0.010535 0.097154,-0.03863 0.128756,-0.06789 0.017559,-0.015217 0.043311,-0.024579 0.070232,-0.024579 0.032776,0 0.04565,-0.00585 0.056181,-0.028094 0.018728,-0.036283 0,-0.077252 -0.053843,-0.122902 -0.040968,-0.033945 -0.060866,-0.037457 -0.079595,-0.01639 z m 0.042138,0.088961 c 0.00468,0.026921 -0.00468,0.031602 -0.031602,0.015213 -0.019898,-0.012874 -0.00819,-0.052669 0.014043,-0.045646 0.00702,0.00351 0.015216,0.016386 0.017559,0.030433 z m 0.060866,0.014047 c 0.010531,0.019898 0.00936,0.023409 -0.011709,0.023409 -0.015213,0 -0.023409,-0.00819 -0.023409,-0.023409 0,-0.012878 0.00468,-0.023413 0.011705,-0.023413 0.00585,0 0.01639,0.010535 0.023413,0.023413 z"
     id="path91"
     inkscape:connector-curvature="0"
     style="fill:#000000" /><path
     class="fil0"
     d="m 5.484303,5.7984392 c -0.049161,0.052673 -0.057354,0.084276 -0.02926,0.11237 0.012878,0.012874 0.02926,0.024579 0.037457,0.028091 0.011705,0.00351 0.010532,0.011705 -0.00585,0.036287 -0.024579,0.038626 -0.017559,0.039795 0.038626,0.00351 0.023413,-0.016386 0.057354,-0.032776 0.073744,-0.036284 0.017559,-0.00468 0.037457,-0.021071 0.04448,-0.036287 0.011705,-0.028091 0.011705,-0.02926 -0.012878,-0.021067 -0.015217,0.00585 -0.040968,0.00936 -0.058524,0.00936 -0.033949,-0.00117 -0.091303,-0.032776 -0.091303,-0.0515 0,-0.018728 0.059697,-0.028094 0.070232,-0.011705 0.00702,0.010531 0.012878,0.00819 0.023413,-0.010535 0.033945,-0.065551 -0.032776,-0.081933 -0.09013,-0.02224 z"
     id="path93"
     inkscape:connector-curvature="0"
     style="fill:#000000" /><path
     class="fil0"
     d="m 4.418973,5.7984392 c -0.049161,0.052673 -0.057354,0.084276 -0.02926,0.11237 0.012874,0.012874 0.02926,0.024579 0.037453,0.028091 0.011709,0.00351 0.010535,0.011709 -0.00585,0.036287 -0.024579,0.038626 -0.017559,0.039795 0.038626,0.00351 0.023413,-0.016386 0.057354,-0.032772 0.07374,-0.036284 0.017559,-0.00468 0.037457,-0.021071 0.04448,-0.036283 0.011709,-0.028094 0.011709,-0.029264 -0.012874,-0.021071 -0.015217,0.00585 -0.040968,0.00936 -0.058528,0.00936 -0.033945,-0.00117 -0.091299,-0.032772 -0.091299,-0.0515 0,-0.018724 0.059697,-0.028095 0.070232,-0.011705 0.00702,0.010535 0.012878,0.00819 0.023409,-0.010535 0.033949,-0.065547 -0.032772,-0.081933 -0.090126,-0.02224 z"
     id="path95"
     inkscape:connector-curvature="0"
     style="fill:#000000" /><path
     class="fil0"
     d="m 6.9614731,5.8883292 c -0.148654,0.057354 -0.220051,0.098319 -0.202496,0.115878 0.011705,0.012878 0.341783,-0.122902 0.372217,-0.152161 0.040965,-0.042138 0.017559,-0.037457 -0.1697241,0.036283 z"
     id="path97"
     inkscape:connector-curvature="0"
     style="fill:#000000" /><path
     class="fil0"
     d="m 7.5442431,5.7984392 c -0.049161,0.052673 -0.057354,0.084276 -0.02926,0.11237 0.012874,0.012878 0.02926,0.024579 0.037457,0.028094 0.011705,0.00351 0.010531,0.011705 -0.00585,0.036283 -0.024579,0.038626 -0.017559,0.039795 0.038626,0.00351 0.023413,-0.01639 0.057354,-0.032776 0.073744,-0.036287 0.017559,-0.00468 0.037457,-0.021067 0.04448,-0.036283 0.011705,-0.028094 0.011705,-0.02926 -0.012878,-0.021071 -0.015217,0.00585 -0.040969,0.00937 -0.058524,0.00937 -0.033949,-0.00117 -0.091303,-0.032775 -0.091303,-0.051504 0,-0.018724 0.059697,-0.028091 0.070232,-0.011705 0.00702,0.010535 0.012878,0.00819 0.023413,-0.010535 0.033945,-0.065547 -0.032776,-0.081933 -0.09013,-0.02224 z"
     id="path99"
     inkscape:connector-curvature="0"
     style="fill:#000000" /><rect
     class="fil0"
     transform="rotate(42.744033)"
     width="0.11663689"
     height="0.11663689"
     id="rect101"
     x="4.2998385"
     y="3.1080003"
     style="fill:#000000;stroke-width:1.49293327" /><rect
     class="fil0"
     transform="rotate(42.744033)"
     width="0.11663689"
     height="0.11663689"
     id="rect103"
     x="5.8257961"
     y="1.8455238"
     style="fill:#000000;stroke-width:1.49293327" /><rect
     class="fil0"
     transform="rotate(42.744033)"
     width="0.11663689"
     height="0.11663689"
     id="rect105"
     x="7.1634908"
     y="0.30966285"
     style="fill:#000000;stroke-width:1.49293327" /><rect
     class="fil0"
     transform="rotate(44.963655)"
     width="0.11669733"
     height="0.11657801"
     id="rect107"
     x="6.8336926"
     y="1.4289123"
     style="fill:#000000;stroke-width:1.49294293" /><rect
     class="fil0"
     transform="rotate(44.963655)"
     width="0.11669733"
     height="0.11657801"
     id="rect109"
     x="6.9521728"
     y="1.3105824"
     style="fill:#000000;stroke-width:1.49294293" /><rect
     class="fil0"
     transform="rotate(42.744033)"
     width="0.11663689"
     height="0.11663689"
     id="rect111"
     x="8.9629297"
     y="-1.2646203"
     style="fill:#000000;stroke-width:1.49293327" /></g>
</svg>